# xmcd CD database file
#
# Track frame offsets:
#	182
#	29687
#	56300
#	85395
#	110825
#	131777
#	161427
#	193990
#	227327
#
# Disc length: 3423 seconds
#
# Revision: 0
# Processed by: cddbd v1.5.2PL0 Copyright (c) Steve Scherf et al.
# Submitted via: CDex 1.70beta2
#
DISCID=790d5d09
DTITLE=The Bob Arthur Band - Reggae Rhythms
DYEAR=1995
DGENRE=New Age
TTITLE0=Steel Drum Reggae
TTITLE1=Light of Day
TTITLE2=One Life
TTITLE3=Trade Winds
TTITLE4=Acoustic Reggae
TTITLE5=Reggae Rhythms
TTITLE6=Quiet Cove
TTITLE7=Tropic Isle
TTITLE8=Jamin
EXTD=YEAR: 1995
EXTT0=
EXTT1=
EXTT2=
EXTT3=
EXTT4=
EXTT5=
EXTT6=
EXTT7=
EXTT8=
PLAYORDER=
